<svg fill="#000000" xmlns="http://www.w3.org/2000/svg" viewBox="0 0 128 128" width="64px" height="64px"><path d="M14.5 39.8c-1.5-.6-3.3.1-3.9 1.6-2.4 5.8-3.9 11.9-4.4 18.1-.1 1.7 1.1 3.1 2.8 3.2.1 0 .2 0 .2 0 1.6 0 2.9-1.2 3-2.8.4-5.6 1.8-11.1 3.9-16.2C16.7 42.2 16 40.5 14.5 39.8zM113.1 39.1c-1.5.7-2.2 2.4-1.5 4 8.7 19.8 4.5 42.5-10.8 57.8C90.9 110.6 77.9 116 64 116c-11.2 0-21.9-3.5-30.8-10.1l0 0h4.9c1.7 0 3-1.3 3-3s-1.3-3-3-3h-13c-1.7 0-3 1.3-3 3v13c0 1.7 1.3 3 3 3s3-1.3 3-3v-6.3l0 0C38.6 117.8 51.3 122 64 122c14.9 0 29.7-5.7 41-17 17.1-17.1 21.8-42.3 12.1-64.4C116.4 39.1 114.6 38.4 113.1 39.1zM90.1 22.1c-1.6 0-3.1 1.2-3.2 2.8-.1 1.7 1.3 3.2 3 3.2h13c1.7 0 3-1.3 3-3V12.3c0-1.6-1.2-3.1-2.8-3.2-1.7-.1-3.2 1.3-3.2 3v6.3C78 1.1 46.3 1.9 25.3 20.8 24 22 24 24 25.2 25.2c1.1 1.1 2.9 1.2 4.1.1C38.9 16.7 51.1 12 64 12c11.2 0 21.9 3.5 30.8 10.1l0 0H90.1zM11.5 77.69999999999999A2.9 2.9 0 1 0 11.5 83.5 2.9 2.9 0 1 0 11.5 77.69999999999999z"/></svg>