<?xml version="1.0" encoding="iso-8859-1"?>
<!-- Generator: Adobe Illustrator 19.0.0, SVG Export Plug-In . SVG Version: 6.00 Build 0)  -->
<svg version="1.1" id="Capa_1" xmlns="http://www.w3.org/2000/svg" xmlns:xlink="http://www.w3.org/1999/xlink" x="0px" y="0px"
	 viewBox="0 0 512 512" style="enable-background:new 0 0 512 512;" xml:space="preserve">
<g>
	<g>
		<path d="M455.281,404.894v-73.787l30.053-29.803l-10.481-10.606l-28.365,28.178l-55.207-27.509v-80l-71.25-35.75l-63.875,32
			l-63.938-32l-64.219,32l-56.718-28.25v-70.729l56.5-28.25l56.5,28.25V152h15V99.365l-64-32V0h-15v67.365l-54.769,27.51
			L21.459,50.697L10.666,61.303l45.616,45.803v73.787l-29.553,29.803l10.731,10.606l27.99-28.178l54.832,27.509v80l71.75,35.75
			l64.125-32l64.063,32l63.781-32l56.281,28.25v70.729l-56.5,28.25l-56.5-28.25V360h-15v52.635l64,32V512h15v-67.365l55.269-27.51
			l44.427,44.178l10.356-10.606L455.281,404.894z M248.281,291.365l-56.5,28.25l-56.5-28.25v-70.729l56.5-28.25l56.5,28.25V291.365z
			 M376.281,291.365l-56.5,28.25l-56.5-28.25v-70.729l56.5-28.25l56.5,28.25V291.365z"/>
	</g>
</g>
<g>
	<g>
		<rect x="96.28" y="161" width="16" height="15"/>
	</g>
</g>
<g>
	<g>
		<rect x="352.28" y="385" width="16" height="15"/>
	</g>
</g>
<g>
	<g>
		<rect x="408.28" y="336" width="15" height="64"/>
	</g>
</g>
<g>
	<g>
		<rect x="152.28" y="224" width="15" height="64"/>
	</g>
</g>
<g>
</g>
<g>
</g>
<g>
</g>
<g>
</g>
<g>
</g>
<g>
</g>
<g>
</g>
<g>
</g>
<g>
</g>
<g>
</g>
<g>
</g>
<g>
</g>
<g>
</g>
<g>
</g>
<g>
</g>
</svg>
